<?xml version="1.0" encoding="UTF-8"?><svg id="a" xmlns="http://www.w3.org/2000/svg" viewBox="0 0 2052 1080"><path d="M2051.99,537.91v-.05c0-.95-.01-1.89-.02-2.83,0-.47-.01-.95-.01-1.42-.01-.92-.03-1.83-.04-2.74-.01-.51-.02-1.02-.03-1.53-.01-.87-.04-1.75-.06-2.62-.02-.77-.04-1.54-.06-2.3v-.11c0-.22-.01-.43-.02-.64-.02-.96-.06-1.92-.09-2.87-.01-.35-.03-.69-.04-1.04-.03-.79-.06-1.59-.09-2.39,0-.09-.01-.17-.01-.26-.03-.65-.05-1.31-.09-1.96-.04-.93-.08-1.86-.13-2.79,0-.08-.01-.16-.01-.24-.04-.73-.08-1.45-.12-2.17-.01-.14-.02-.29-.02-.44-.06-.93-.11-1.86-.16-2.79-.02-.34-.05-.69-.07-1.04-.01-.12-.01-.24-.02-.36-.05-.74-.1-1.48-.15-2.22-.04-.67-.08-1.33-.13-1.99-.05-.66-.1-1.32-.15-1.99-.07-.86-.13-1.73-.2-2.6-.03-.33-.05-.67-.08-1-.08-.96-.16-1.91-.24-2.87-.02-.14-.03-.28-.04-.42-.06-.69-.12-1.38-.18-2.06-.01-.08-.02-.16-.02-.24-.01-.1-.02-.21-.03-.31-.08-.85-.17-1.7-.25-2.55-.07-.75-.14-1.52-.22-2.28,0-.03-.01-.05-.01-.08-.07-.71-.15-1.43-.23-2.15-.03-.35-.07-.71-.11-1.06-.1-.89-.19-1.79-.29-2.68-.03-.23-.06-.46-.08-.69-.09-.79-.19-1.58-.28-2.37-.08-.64-.15-1.28-.23-1.93-.02-.18-.04-.37-.06-.55-.02-.16-.04-.33-.07-.49-.04-.34-.08-.68-.13-1.02-.1-.78-.19-1.55-.29-2.32-.01-.1-.03-.21-.04-.31-.06-.46-.12-.91-.18-1.37-.12-.9-.25-1.79-.37-2.69-.11-.75-.21-1.5-.32-2.26-.02-.18-.05-.36-.08-.55-.14-.96-.28-1.93-.43-2.89-.05-.39-.11-.78-.17-1.17-.12-.78-.24-1.56-.36-2.34-.11-.66-.21-1.32-.32-1.98-.13-.85-.27-1.71-.41-2.56l-.06-.36c-.12-.72-.24-1.45-.37-2.17-.02-.12-.04-.25-.06-.37-.15-.85-.29-1.7-.44-2.54-.06-.37-.13-.74-.2-1.11-.15-.85-.3-1.71-.46-2.56-.1-.58-.21-1.17-.32-1.75-.06-.34-.12-.68-.19-1.02-.07-.34-.13-.68-.2-1.02-.15-.83-.31-1.66-.47-2.48-.06-.3-.12-.6-.17-.89-.2-.97-.39-1.94-.59-2.91-.03-.13-.05-.26-.08-.39-.11-.53-.21-1.05-.32-1.58-.02-.12-.05-.24-.07-.36-.01-.05-.02-.1-.03-.15-.21-.98-.42-1.95-.62-2.92,0-.04-.02-.08-.03-.12-.17-.77-.33-1.55-.5-2.33,0-.02-.01-.04-.01-.06v-.02c-.01-.06-.03-.13-.04-.19-.14-.58-.26-1.16-.4-1.74-.06-.3-.13-.61-.2-.91-.14-.64-.29-1.29-.43-1.93-.04-.17-.07-.33-.11-.5-.06-.26-.13-.52-.19-.79-.01-.04-.02-.07-.02-.11-.18-.73-.35-1.47-.52-2.2-.17-.74-.34-1.48-.52-2.22-.13-.53-.26-1.06-.39-1.58-.2-.83-.4-1.66-.61-2.49-.1-.42-.2-.83-.3-1.25-.04-.15-.08-.3-.12-.45l-.57-2.22c-.18-.71-.36-1.42-.54-2.13-.05-.16-.09-.32-.13-.48-.25-.98-.52-1.96-.78-2.94-.12-.45-.24-.9-.36-1.35-.19-.7-.38-1.41-.58-2.11-.16-.6-.33-1.2-.49-1.8-.22-.77-.43-1.54-.65-2.31-.05-.16-.09-.32-.14-.48-.2-.72-.41-1.43-.62-2.15-.03-.1-.05-.2-.08-.3-.22-.76-.44-1.53-.67-2.29-.12-.4-.24-.8-.36-1.2-.24-.81-.48-1.61-.72-2.41-.16-.54-.32-1.07-.48-1.6-.21-.69-.42-1.37-.64-2.06-.24-.77-.48-1.54-.72-2.31-.08-.27-.16-.54-.25-.81-.31-.97-.62-1.95-.94-2.92-.05-.14-.09-.27-.13-.42,0-.01-.01-.03-.01-.04-.19-.55-.36-1.11-.54-1.67-.02-.03-.03-.07-.04-.11-.02-.07-.05-.15-.07-.22-.3-.9-.59-1.79-.9-2.69-.25-.74-.49-1.48-.74-2.22-.02-.07-.05-.14-.07-.21-.21-.62-.43-1.24-.64-1.87-.1-.28-.2-.56-.29-.84-.26-.73-.51-1.46-.76-2.19-.1-.29-.21-.59-.31-.88-.04-.11-.08-.23-.12-.34-.23-.63-.45-1.26-.68-1.89-.19-.55-.38-1.08-.57-1.62-.04-.12-.09-.25-.13-.37-.06-.16-.12-.33-.18-.49-.14-.38-.29-.76-.43-1.15-.28-.77-.56-1.53-.84-2.29-.14-.38-.27-.76-.42-1.14-.33-.9-.67-1.78-1-2.68h-.01c-.25-.65-.49-1.3-.74-1.94-.05-.14-.1-.28-.16-.42-.35-.93-.72-1.87-1.09-2.8-.23-.6-.46-1.2-.7-1.8-.21-.52-.42-1.05-.63-1.57-.21-.54-.42-1.07-.64-1.6-.3-.75-.6-1.5-.9-2.25-.08-.19-.16-.38-.24-.58-.27-.66-.55-1.32-.82-1.98-.02-.04-.04-.09-.06-.13-.15-.38-.31-.76-.47-1.14-.15-.39-.31-.77-.47-1.14-.18-.43-.36-.85-.54-1.27-.16-.38-.33-.77-.49-1.16-.15-.35-.29-.69-.44-1.04l-.63-1.47c-.25-.58-.51-1.17-.77-1.75-.05-.13-.1-.25-.16-.38-.15-.34-.3-.68-.45-1.02-.15-.35-.29-.69-.45-1.03-.11-.25-.21-.5-.32-.75-.33-.74-.66-1.47-.99-2.2-.05-.12-.11-.24-.16-.36-.13-.28-.25-.56-.38-.83-.11-.23-.21-.47-.31-.7s-.21-.47-.32-.7c-.01-.03-.03-.07-.04-.11-.39-.85-.79-1.69-1.18-2.54-.35-.78-.71-1.55-1.07-2.32-.05-.1-.09-.2-.14-.31-.26-.55-.52-1.1-.78-1.65-.09-.18-.17-.35-.25-.53-.38-.79-.75-1.57-1.12-2.36-.16-.32-.32-.65-.47-.97-.32-.67-.65-1.33-.97-1.99-.02-.03-.03-.07-.05-.1-.28-.59-.57-1.17-.85-1.76-.13-.26-.26-.53-.4-.79-.15-.31-.3-.61-.46-.92-.33-.67-.66-1.34-1-2.01-.03-.07-.07-.13-.1-.2-.14-.29-.28-.59-.43-.88-.36-.71-.73-1.42-1.09-2.14-.09-.17-.18-.35-.27-.53-.29-.55-.57-1.1-.85-1.66-.08-.14-.15-.29-.22-.43-.17-.32-.33-.63-.5-.94-.19-.37-.39-.74-.58-1.11-.46-.9-.93-1.79-1.4-2.69-.01,0-.02-.03-.03-.04-.16-.31-.32-.61-.49-.92-.17-.33-.35-.65-.52-.98-.49-.92-.99-1.85-1.49-2.77-.12-.22-.24-.44-.36-.66-.32-.59-.65-1.18-.97-1.77-.41-.75-.82-1.51-1.24-2.25-.25-.46-.51-.91-.76-1.37-.35-.63-.71-1.26-1.06-1.89-.26-.46-.52-.93-.79-1.39-.27-.48-.55-.96-.82-1.44-.13-.23-.27-.47-.41-.7-.33-.58-.66-1.17-1-1.75-.14-.25-.28-.5-.43-.74-.22-.39-.45-.78-.68-1.17-.06-.1-.11-.19-.17-.29-.4-.67-.8-1.36-1.2-2.03-.18-.32-.37-.64-.56-.95-.03-.06-.06-.11-.09-.16-.17-.29-.34-.57-.51-.86-.6-1-1.2-1.99-1.8-2.99-.15-.24-.29-.49-.44-.73-.08-.13-.16-.26-.24-.39h-.01c-.36-.6-.72-1.19-1.09-1.79-.34-.56-.68-1.11-1.02-1.67-1.02-1.64-2.05-3.28-3.09-4.91-.58-.93-1.17-1.85-1.76-2.77-.01,0-.01,0-.02,0-.48-.76-.97-1.52-1.46-2.27-.61-.93-1.21-1.86-1.82-2.78-.11-.16-.21-.32-.32-.48-.45-.69-.91-1.39-1.38-2.08-.46-.69-.93-1.38-1.39-2.07-.3-.44-.59-.89-.9-1.33-.27-.41-.54-.81-.82-1.21-.28-.4-.56-.8-.83-1.21-1.09-1.59-2.19-3.17-3.3-4.75-1.11-1.58-2.22-3.16-3.35-4.72-1.04-1.47-2.1-2.92-3.16-4.37-.39-.54-.79-1.08-1.19-1.61-.82-1.12-1.65-2.24-2.49-3.35-30.76-40.97-67.22-77.43-108.19-108.19-.03-.03-.07-.05-.1-.08-1.41-1.06-2.83-2.1-4.25-3.15-1.42-1.04-2.86-2.08-4.29-3.11-.42-.3-.84-.61-1.26-.91-1.33-.95-2.66-1.9-3.99-2.83-.12-.09-.24-.17-.36-.26-1.37-.95-2.74-1.9-4.11-2.84-.5-.35-1.01-.7-1.51-1.04-1.41-.96-2.83-1.92-4.25-2.87-1.42-.95-2.85-1.89-4.28-2.83-.25-.17-.51-.34-.76-.5-.25-.16-.51-.32-.76-.49-2.9-1.89-5.82-3.75-8.76-5.59-.09-.05-.17-.1-.25-.16-.09-.06-.18-.11-.26-.16-.02,0-.03-.02-.05-.03-.9-.56-1.81-1.12-2.72-1.67-.47-.29-.94-.59-1.42-.88-.13-.08-.26-.16-.4-.24-1.22-.75-2.45-1.48-3.68-2.22-.3-.17-.59-.35-.89-.53-.05-.03-.1-.06-.15-.09-.33-.19-.65-.38-.98-.58-.77-.45-1.55-.91-2.32-1.36-.38-.22-.76-.45-1.15-.67-.24-.14-.49-.28-.73-.43-.04-.02-.09-.05-.13-.08-.55-.31-1.1-.62-1.65-.94-.25-.14-.5-.28-.75-.43-.45-.26-.91-.52-1.36-.78-.46-.26-.93-.52-1.39-.78-.64-.36-1.28-.72-1.92-1.08-.12-.07-.25-.14-.37-.21-.33-.18-.65-.37-.98-.55-.75-.41-1.5-.82-2.24-1.23-.59-.32-1.18-.65-1.77-.97-.23-.12-.45-.25-.68-.37-.9-.49-1.81-.97-2.72-1.46-.34-.18-.68-.36-1.02-.54-.3-.16-.61-.33-.92-.49-.01-.01-.03-.02-.05-.03-.87-.46-1.74-.91-2.61-1.37-.71-.37-1.42-.74-2.13-1.11-.14-.07-.28-.14-.42-.22-.14-.07-.29-.15-.43-.22-.41-.21-.81-.41-1.22-.62-.15-.08-.3-.15-.45-.23-.74-.38-1.49-.76-2.24-1.14-.36-.18-.71-.36-1.06-.53-.09-.04-.17-.09-.26-.13-.59-.3-1.19-.59-1.78-.88-.38-.2-.77-.39-1.16-.58-.18-.09-.36-.18-.54-.27-.61-.3-1.22-.6-1.83-.89-.68-.33-1.35-.66-2.03-.99-.32-.15-.64-.31-.96-.46-.76-.37-1.53-.73-2.29-1.09-.2-.09-.39-.18-.59-.28-.55-.26-1.1-.52-1.66-.78-.1-.05-.2-.1-.3-.14-.75-.35-1.5-.7-2.25-1.04-.87-.4-1.75-.81-2.62-1.21-.04-.02-.07-.03-.11-.05-.01,0-.02,0-.03,0-.45-.21-.9-.4-1.35-.61-.25-.11-.49-.22-.74-.33-.42-.19-.85-.38-1.27-.57-.47-.21-.93-.42-1.4-.63-.24-.11-.49-.22-.74-.32-.34-.16-.68-.3-1.03-.45-.34-.15-.68-.3-1.02-.45-.13-.06-.25-.11-.38-.16-.58-.26-1.17-.52-1.75-.77-.49-.21-.98-.42-1.47-.63-.35-.15-.7-.29-1.04-.44-.39-.16-.78-.33-1.16-.49-.2-.09-.41-.17-.61-.26-.22-.1-.44-.2-.67-.29-.46-.19-.91-.38-1.37-.57-.26-.1-.52-.21-.78-.32-.08-.03-.15-.06-.23-.09-.67-.28-1.34-.56-2.01-.83-.2-.08-.39-.16-.58-.24-.72-.29-1.43-.58-2.15-.86-.53-.22-1.07-.44-1.61-.65-.56-.22-1.11-.45-1.67-.67-.57-.22-1.15-.45-1.72-.67-.95-.37-1.91-.75-2.87-1.12-.14-.05-.28-.1-.42-.16-.64-.24-1.28-.48-1.92-.73-.9-.34-1.8-.68-2.7-1.02-.38-.14-.75-.28-1.13-.41-.62-.23-1.23-.46-1.85-.69-.15-.05-.3-.11-.45-.16-.55-.2-1.09-.4-1.64-.6-.66-.24-1.33-.47-1.99-.71-.74-.26-1.48-.53-2.22-.79-.29-.1-.58-.2-.87-.31-.5-.17-.99-.34-1.48-.51-.25-.08-.49-.17-.73-.25-.28-.1-.56-.19-.84-.29-.62-.21-1.24-.43-1.87-.64-.06-.02-.13-.05-.2-.07-.73-.25-1.47-.49-2.21-.74-.98-.32-1.95-.65-2.93-.97-.03-.01-.07-.02-.11-.04-.55-.18-1.11-.36-1.67-.54-.15-.04-.29-.09-.44-.14-.97-.31-1.95-.63-2.93-.94-.27-.08-.53-.17-.8-.25-.77-.24-1.55-.48-2.32-.72-.69-.22-1.38-.43-2.06-.64-.53-.16-1.06-.32-1.59-.48-.81-.24-1.62-.49-2.43-.73-.39-.11-.79-.24-1.19-.35-.75-.22-1.5-.44-2.25-.66-.12-.03-.23-.06-.34-.09-.72-.21-1.43-.42-2.15-.62-.16-.05-.32-.1-.48-.14-.77-.22-1.53-.43-2.29-.64-.6-.16-1.19-.33-1.79-.49-.73-.2-1.46-.4-2.19-.6-.43-.12-.87-.23-1.31-.35-.97-.26-1.95-.53-2.93-.78-.16-.04-.32-.08-.48-.13-.71-.18-1.42-.36-2.14-.54-.87-.23-1.75-.45-2.63-.68-.02,0-.03-.01-.05-.01-.41-.1-.82-.2-1.23-.3-.83-.21-1.66-.41-2.5-.61-.52-.13-1.05-.26-1.57-.39-.74-.18-1.47-.35-2.21-.52-.77-.18-1.55-.36-2.33-.54-.1-.03-.19-.05-.28-.07-.17-.04-.34-.08-.51-.12-.13-.03-.25-.06-.38-.08-.66-.16-1.34-.31-2.01-.46-.32-.07-.63-.14-.95-.21-.64-.14-1.28-.29-1.93-.43-.03,0-.05-.01-.08-.01-.8-.18-1.6-.35-2.4-.52-.99-.21-1.97-.42-2.97-.63-.04-.01-.09-.02-.14-.03-.11-.02-.22-.04-.32-.06-.53-.11-1.06-.21-1.58-.32-.14-.03-.27-.06-.4-.08-.78-.16-1.57-.32-2.35-.48-.2-.04-.39-.08-.59-.12-.3-.05-.59-.11-.89-.17-.83-.16-1.65-.32-2.48-.47-.34-.07-.68-.13-1.01-.2-.34-.07-.68-.13-1.02-.19-.59-.11-1.19-.22-1.78-.32-.84-.16-1.68-.31-2.52-.46-.38-.07-.75-.14-1.13-.2-.84-.15-1.68-.29-2.53-.44-.12-.02-.25-.04-.37-.06-.72-.12-1.45-.25-2.17-.37-.13-.02-.25-.04-.38-.06-.84-.14-1.69-.28-2.54-.41-.67-.11-1.33-.21-2-.32-.78-.12-1.55-.24-2.33-.36-.39-.06-.78-.12-1.17-.17-.96-.15-1.93-.29-2.89-.43-.19-.03-.37-.06-.55-.08-.76-.11-1.53-.22-2.29-.32-.77-.1-1.54-.22-2.31-.32-.12-.02-.23-.03-.35-.05-.46-.06-.92-.12-1.37-.18-.1-.01-.21-.03-.31-.04-.78-.1-1.54-.19-2.32-.29-.38-.05-.76-.1-1.14-.15-.13-.02-.25-.03-.38-.05-.12,0-.24-.03-.36-.04-.71-.09-1.42-.17-2.13-.25-.79-.1-1.57-.19-2.36-.28-.23-.03-.45-.05-.68-.08-.89-.1-1.78-.19-2.66-.29-.35-.04-.71-.07-1.06-.11-.72-.08-1.44-.16-2.17-.23-.03,0-.05-.01-.08-.01-.75-.07-1.52-.14-2.27-.22-.85-.08-1.69-.17-2.54-.25-.11-.01-.22-.02-.33-.03-.08,0-.15-.01-.23-.02l-2.07-.18c-.14-.01-.28-.02-.42-.04-.96-.08-1.91-.16-2.87-.24-.33-.03-.66-.05-1-.08-.87-.07-1.74-.13-2.6-.2-.67-.05-1.33-.1-1.99-.15-.66-.04-1.31-.09-1.97-.13-.74-.05-1.49-.1-2.24-.15-.13-.01-.25-.01-.38-.02-.34-.02-.68-.05-1.03-.07-.92-.05-1.84-.1-2.76-.16-.16,0-.31-.01-.47-.02-.72-.04-1.44-.08-2.16-.12-.08,0-.16,0-.24,0-.93-.05-1.85-.09-2.78-.13-.69-.03-1.36-.06-2.05-.09-.06,0-.13-.01-.19-.01-.79-.03-1.58-.06-2.38-.09-.35-.01-.69-.03-1.04-.04-.96-.03-1.91-.07-2.86-.09-.22-.01-.43-.02-.65-.02h-.12c-.75-.02-1.51-.04-2.27-.06-.44-.01-.88-.02-1.32-.03-.44-.02-.88-.02-1.32-.03-.51-.01-1.02-.02-1.53-.03-.91,0-1.82-.03-2.73-.04-.48,0-.96-.01-1.43-.01-.94-.01-1.89-.02-2.83-.02h-.03C1513.55.01,1512.99,0,1512.43,0h-1.9C1510.14,0,1509.74,0,1509.34.01c-.4,0-.8,0-1.19,0-1.17.01-2.33.02-3.5.03-.12.01-.24.01-.36.01-.76.01-1.52.03-2.28.04-1.49.03-2.99.06-4.49.1h-.25c-.53.02-1.05.03-1.58.05-1.4.04-2.81.09-4.21.14-1.41.05-2.82.11-4.23.17-1.4.06-2.81.13-4.22.21-.91.04-1.82.09-2.73.15-2.14.12-4.28.26-6.42.4-15.34,1.05-30.8,2.74-46.37,5.1-231.57,35.1-413.99,217.52-449.09,449.09-2.36,15.57-4.05,31.03-5.1,46.37-.14,2.11-.28,4.23-.4,6.34-.01.18-.02.36-.03.54-.12,2.17-.23,4.34-.33,6.5-.06,1.41-.12,2.82-.17,4.23-.05,1.4-.1,2.81-.14,4.21-.02.53-.03,1.05-.05,1.57v.25c-.04,1.5-.07,2.99-.1,4.49,0,.76-.03,1.52-.04,2.28,0,.12,0,.24-.01.36-.01,1.17-.02,2.34-.03,3.5,0,.39,0,.79-.01,1.19-.01.4-.01.8-.01,1.19v1.9c0,.56.01,1.12.01,1.68v.03c0,.95.01,1.89.02,2.83,0,.47,0,.95,0,1.43.01.91.03,1.82.04,2.73.01.51.02,1.02.03,1.53.01.44.01.88.03,1.32.01.44.02.88.03,1.33.02.75.04,1.51.06,2.26v.12c0,.21.01.43.02.64.02.96.06,1.92.09,2.88,0,.35.03.7.04,1.04.03.79.06,1.58.09,2.37,0,.06.01.13.01.19.03.69.06,1.37.09,2.05.04.93.08,1.86.13,2.78,0,.08.01.16.01.24.04.72.08,1.45.12,2.17.01.15.02.3.02.46.06.92.11,1.84.16,2.76.02.35.05.69.07,1.03.01.13.01.25.02.38.05.74.1,1.49.15,2.23.04.66.09,1.32.13,1.98.05.66.1,1.33.15,1.99.07.87.13,1.73.2,2.6.03.34.05.67.08,1,.08.96.16,1.91.24,2.87.02.13.03.27.04.4.06.7.12,1.4.18,2.1.01.07.02.15.02.22.01.1.02.21.03.31.08.85.17,1.69.25,2.55.07.75.14,1.52.22,2.28,0,.03.01.05.01.08.07.72.15,1.44.23,2.16.04.35.07.7.11,1.05.1.89.19,1.79.29,2.69.03.22.05.45.08.67.09.79.18,1.57.28,2.36.07.67.15,1.33.23,2.01.02.16.04.33.06.49.02.15.04.29.06.44.05.35.09.71.14,1.06.1.79.2,1.57.29,2.36.02.09.03.19.04.28.06.45.12.91.18,1.36.12.9.25,1.79.37,2.68.11.76.21,1.51.32,2.27.02.18.05.37.08.55.14.97.28,1.94.43,2.91.05.38.11.77.17,1.15.12.79.24,1.57.36,2.36.11.66.21,1.32.32,1.98.13.85.27,1.7.41,2.54.02.13.04.25.06.37.12.73.25,1.46.37,2.19.02.13.04.25.06.38.15.83.29,1.67.43,2.5,0,.01,0,.03.01.04.06.37.13.73.2,1.09.15.85.3,1.69.46,2.54.1.59.21,1.18.32,1.76.06.34.12.68.19,1.02.07.34.13.68.2,1.02.15.82.31,1.65.47,2.48.06.3.12.59.17.89.2.98.4,1.95.59,2.93.03.13.06.27.09.4.1.54.21,1.08.32,1.62.02.1.04.19.06.29l.03.15c.21.98.42,1.96.63,2.94.17.81.34,1.62.52,2.42,0,.03.01.06.01.08.15.65.29,1.3.44,1.94.07.31.13.62.2.93.16.7.32,1.41.47,2.11.03.1.05.19.07.29.01.04.02.08.03.12.05.23.11.45.16.67.18.77.36,1.55.54,2.32.17.74.34,1.48.52,2.21.13.53.26,1.05.38,1.57.21.84.41,1.68.62,2.52.1.4.2.81.3,1.22,0,.02.01.03.01.05.22.87.44,1.75.67,2.62.19.72.37,1.44.56,2.15.04.16.08.32.12.48.25.98.52,1.96.78,2.95l.36,1.32c.19.72.39,1.44.59,2.16.16.6.33,1.21.5,1.81.21.75.41,1.51.63,2.26.04.16.09.32.14.48.2.73.41,1.45.62,2.17.04.13.07.25.11.37.21.73.42,1.47.63,2.2.12.4.24.8.36,1.2.24.81.48,1.61.73,2.42.16.53.31,1.06.48,1.59.21.7.42,1.39.64,2.08.24.77.48,1.54.72,2.3.08.27.16.54.25.8.31,1,.64,2,.96,2.99.04.14.09.28.13.41.18.55.35,1.1.53,1.65.01.04.02.07.04.1.32,1,.65,1.99.98,2.98.25.72.49,1.45.73,2.17.02.07.05.14.07.2.21.63.43,1.25.64,1.87.1.29.2.58.3.87.25.72.5,1.45.75,2.17.1.29.21.58.31.87.26.75.53,1.49.79,2.23.24.66.47,1.33.71,1.99.02.04.03.09.05.13.18.5.37.99.55,1.5.28.77.56,1.54.85,2.31.14.38.27.76.41,1.13.34.9.68,1.8,1.02,2.7.25.64.49,1.28.73,1.92.05.14.11.28.16.42.37.97.75,1.94,1.13,2.9.23.57.45,1.15.67,1.72.22.54.44,1.09.65,1.63.22.54.44,1.09.66,1.64.29.71.57,1.42.86,2.13.08.19.16.38.24.58.27.67.55,1.33.83,2,.03.08.06.16.1.25.29.71.58,1.42.88,2.14.18.42.36.84.54,1.27.09.21.18.43.27.65.23.52.45,1.04.67,1.56.21.49.42.98.63,1.46.3.71.61,1.41.92,2.12.3.69.6,1.38.9,2.06.11.25.22.5.33.74.4.91.81,1.81,1.21,2.71.11.24.21.47.32.71.21.45.4.9.61,1.35,0,.01.01.02.01.03.02.03.03.07.05.11.4.87.8,1.74,1.21,2.62.34.75.69,1.5,1.04,2.25.04.1.09.2.14.3.26.56.53,1.12.79,1.67.09.2.18.39.28.59.36.76.71,1.52,1.08,2.28.15.32.31.64.46.96.33.67.66,1.35.98,2.02.3.61.6,1.23.9,1.84.28.57.57,1.14.85,1.71.2.4.4.81.61,1.22.13.27.26.53.39.8.18.35.36.71.53,1.06.23.45.46.9.7,1.35.16.32.32.64.48.95.07.14.14.27.2.41.28.54.56,1.09.84,1.63.07.14.14.29.22.43.37.72.75,1.43,1.12,2.14.45.87.9,1.74,1.36,2.6.01.02.02.04.03.06.16.3.32.6.48.9.19.35.37.69.56,1.04.48.9.96,1.81,1.45,2.71.12.23.25.45.37.67.32.59.64,1.18.97,1.76.41.75.81,1.5,1.23,2.25.25.45.5.9.76,1.36.35.63.71,1.27,1.07,1.9.26.47.52.94.79,1.4.28.51.57,1.01.86,1.51.12.21.24.41.35.61.34.59.68,1.18,1.02,1.77.05.09.1.17.15.26.09.16.18.32.27.48.25.43.51.86.76,1.29.06.1.11.19.17.29.38.64.76,1.28,1.13,1.91.19.32.37.64.56.95.03.05.06.11.09.16.19.32.38.63.57.95.72,1.21,1.45,2.42,2.18,3.62.08.14.16.27.25.41.28.46.56.91.84,1.37.57.92,1.13,1.84,1.7,2.76.03.05.07.11.1.16.09.15.19.29.28.44,1.85,2.97,3.73,5.91,5.63,8.84.31.48.62.95.94,1.43.94,1.44,1.89,2.87,2.84,4.3.96,1.42,1.92,2.84,2.88,4.26.34.5.68.99,1.02,1.48.98,1.42,1.96,2.84,2.94,4.24.99,1.41,1.98,2.82,2.98,4.21.31.43.61.85.92,1.27,1.03,1.43,2.06,2.86,3.11,4.28,1.02,1.39,2.05,2.78,3.09,4.17.02.02.03.05.05.07.02.03.05.06.07.09.04.06.04.14-.01.2-.82.81-1.66,1.6-2.51,2.37-.14.14-.28.27-.43.4-.84.76-1.69,1.49-2.56,2.2-.16.13-.33.26-.49.4-.88.71-1.77,1.4-2.68,2.07-.11.08-.22.15-.33.23-.86.63-1.73,1.24-2.61,1.82-.13.09-.27.19-.41.28-.9.59-1.81,1.15-2.73,1.7-.22.14-.44.27-.67.4-.89.52-1.79,1.02-2.7,1.5-.24.13-.49.26-.74.39-.86.44-1.73.88-2.61,1.29-.24.11-.49.22-.74.34-.78.35-1.57.69-2.37,1.02l-.93.39c-.85.34-1.71.66-2.57.97-.39.14-.78.28-1.18.41-26.67,9.07-57.36,2.98-78.63-18.29l-270-270c-29.82-29.82-29.82-78.18,0-108l355.63-355.63c14.32-14.32,22.37-33.75,22.37-54s-8.55-40.18-22.37-54S1024.72,0,1003.63,0C993.5,0,983.58,2.01,974.41,5.82c-9.18,3.8-17.62,9.39-24.78,16.55l-355.63,355.63c-29.82,29.82-78.18,29.82-108,0L130.37,22.37C116.05,8.05,96.62,0,76.37,0S36.19,8.55,22.37,22.37,0,55.28,0,76.37C0,86.5,2.01,96.42,5.82,105.59c3.8,9.18,9.39,17.62,16.55,24.78l355.63,355.63c29.82,29.82,29.82,78.18,0,108L22.37,949.63C8.05,963.95,0,983.38,0,1003.63s8.55,40.18,22.37,54,32.91,22.37,54,22.37c10.13,0,20.05-2.01,29.22-5.82,9.18-3.8,17.62-9.39,24.78-16.55l355.63-355.63c29.82-29.82,78.18-29.82,108,0l355.63,355.63c14.32,14.32,33.75,22.37,54,22.37h44.74c20.25,0,39.68-8.05,54-22.37l85.51-85.51c.06-.06.15-.07.21-.02.03.02.06.05.09.07.02.02.05.03.07.05,2.81,2.1,5.63,4.17,8.48,6.22.42.3.84.61,1.26.91,1.33.95,2.66,1.9,3.99,2.83.12.09.24.17.36.26,1.37.95,2.74,1.9,4.11,2.84.5.35,1,.7,1.51,1.04,1.41.96,2.83,1.92,4.25,2.87,1.42.95,2.85,1.89,4.28,2.83.5.33,1.01.66,1.51.99,2.91,1.89,5.83,3.75,8.77,5.59.17.1.34.21.51.32.01.01.03.02.05.03.91.57,1.83,1.13,2.74,1.69.47.28.93.57,1.39.85.14.09.28.17.41.25,1.19.73,2.38,1.44,3.58,2.15.33.2.66.41.99.6.06.03.11.06.16.09.31.19.62.37.93.55.63.37,1.25.74,1.88,1.11.11.07.23.13.34.2.43.25.86.51,1.29.76.16.09.32.18.48.27.09.05.18.1.26.15.58.34,1.17.67,1.75,1,.21.12.41.24.62.36.25.14.51.29.76.44.25.14.51.29.76.43.46.27.93.53,1.4.79.63.36,1.26.71,1.9,1.07.12.07.25.14.37.21.33.18.65.37.98.55.74.41,1.49.81,2.23,1.22.01,0,.01.01.02.01.59.32,1.17.65,1.77.97.22.12.44.25.67.37.87.47,1.75.94,2.62,1.4.37.2.74.4,1.11.6.31.16.62.33.93.49.02.01.04.03.06.04.83.44,1.66.87,2.5,1.3.28.15.55.29.83.44.47.25.94.49,1.4.73.14.08.28.15.42.22.15.08.3.15.44.22.4.21.8.41,1.19.61.13.07.27.13.4.2.63.33,1.25.65,1.89.96.14.08.29.15.43.22.35.18.71.36,1.07.54.11.06.23.11.34.17.56.28,1.11.56,1.67.83.57.28,1.14.57,1.71.85.62.31,1.24.6,1.85.9.67.33,1.33.65,2,.97.32.16.64.31.97.47.76.37,1.53.73,2.29,1.09.2.09.4.19.6.28.55.26,1.09.52,1.64.78.11.05.21.1.31.14.75.35,1.5.7,2.25,1.04.87.4,1.75.81,2.62,1.21.04.02.08.04.12.05.43.2.87.39,1.3.59.26.11.52.23.78.35.9.4,1.8.81,2.71,1.21l.75.33c.67.3,1.35.59,2.02.89.71.32,1.43.63,2.15.93.49.21.98.42,1.47.63.21.09.43.18.64.27.52.22,1.03.44,1.55.66.43.18.85.37,1.28.55.72.3,1.43.59,2.15.89.09.03.17.07.25.1.66.27,1.32.55,1.98.82.2.08.4.16.59.24.71.29,1.42.57,2.12.86.55.22,1.1.43,1.64.65.55.22,1.1.44,1.65.66.57.22,1.14.44,1.71.67.96.38,1.93.76,2.9,1.13.14.05.29.11.43.16l1.89.72c.91.34,1.82.69,2.73,1.03.37.14.74.27,1.12.41.62.23,1.23.46,1.85.69.15.05.3.11.45.16.55.2,1.09.4,1.64.6.66.24,1.33.47,1.99.71.74.26,1.48.53,2.22.79.29.1.58.21.88.31.71.25,1.43.49,2.15.74l.87.3c.63.22,1.25.44,1.88.65.07.02.15.05.22.07.71.24,1.43.48,2.14.72,1,.33,1.99.67,2.99.99.04.01.07.03.11.04.56.18,1.11.36,1.67.54.13.04.26.08.39.12.98.31,1.95.64,2.93.95.02.01.04.01.06.02.27.08.54.16.81.25.76.24,1.53.47,2.29.71.7.22,1.39.43,2.08.64.54.17,1.07.33,1.61.49.79.24,1.59.48,2.39.71l1.2.36c.75.22,1.5.44,2.24.65.12.04.24.07.35.1.72.21,1.43.42,2.15.62.16.05.32.1.49.14.75.22,1.51.42,2.27.64.6.16,1.21.33,1.81.5.71.19,1.43.39,2.15.58.44.12.88.24,1.33.36.98.26,1.96.53,2.94.78.16.04.32.08.48.12.7.19,1.4.37,2.11.55.88.23,1.77.45,2.66.68.02,0,.03,0,.05,0,.41.1.83.2,1.24.3.83.21,1.66.41,2.49.61.52.13,1.05.26,1.57.39.74.18,1.48.35,2.22.52.73.17,1.47.34,2.2.52.04,0,.07.01.11.02.27.06.53.13.8.19.06.01.11.03.17.04.73.17,1.48.33,2.22.49.31.07.62.14.94.21.58.14,1.16.26,1.74.4.06.01.13.03.19.04.03,0,.06.01.09.02.8.17,1.6.34,2.39.51.99.21,1.98.42,2.98.63.04.01.09.02.14.03.1.02.19.04.29.06.54.11,1.08.21,1.62.32.12.03.25.06.38.08.78.16,1.57.32,2.36.48.2.04.39.08.59.12.3.06.6.11.9.17.82.16,1.65.32,2.48.48.68.13,1.35.26,2.03.38.59.11,1.18.22,1.77.33.84.15,1.68.3,2.52.45.38.07.75.14,1.13.2.84.15,1.68.29,2.52.44.13.02.25.04.38.06l2.1.36s.04.01.06.01c.13.02.26.04.39.06.84.14,1.69.28,2.54.41.67.11,1.35.22,2.03.33.77.11,1.53.23,2.3.35.38.06.76.11,1.15.17.58.09,1.17.18,1.76.27.38.05.77.11,1.16.17.18.02.36.05.55.07.75.11,1.5.21,2.25.32.9.12,1.8.25,2.69.37.46.06.93.12,1.39.18.87.11,1.74.22,2.6.33.37.05.73.1,1.1.14.14.02.29.04.43.06.84.1,1.69.2,2.53.3.77.09,1.54.18,2.31.27.23.03.46.05.69.08.89.1,1.77.19,2.66.29.35.04.7.07,1.05.11.73.08,1.46.16,2.19.23.02,0,.05,0,.07.01.76.07,1.51.14,2.27.22.85.08,1.69.17,2.54.25.11.01.22.02.33.03.07,0,.15.01.22.02.69.06,1.39.12,2.09.18.13.01.27.02.41.04.96.08,1.91.16,2.87.24.33.03.67.05,1.01.08.86.07,1.73.13,2.59.2.66.05,1.33.1,1.99.15s1.32.09,1.98.13c.74.05,1.48.1,2.23.15.12.01.25.01.37.02.34.02.69.05,1.04.07.92.05,1.84.1,2.76.16.16,0,.31.01.46.02.72.04,1.45.08,2.17.12.08,0,.16.01.24.01.93.05,1.85.09,2.78.13.62.03,1.25.06,1.87.08.12.01.23.02.35.02.8.03,1.59.06,2.39.09.35.01.7.03,1.05.04.96.03,1.91.07,2.86.09.22.01.43.02.64.02.07,0,.13,0,.2.01.72.01,1.46.03,2.18.05.44.01.89.02,1.33.03.44.02.89.02,1.33.03.51,0,1.03.02,1.54.03.9.01,1.81.03,2.72.04.48,0,.95.01,1.43.01.94.01,1.89.02,2.83.02h.05c.55,0,1.1.01,1.65.01h1.91c.39,0,.79,0,1.19-.01.4-.01.8-.01,1.19-.01,1.16-.01,2.33-.02,3.49-.03.13-.01.25-.01.37-.01.78-.01,1.55-.03,2.32-.04,1.48-.03,2.96-.06,4.44-.1h.26c.55-.02,1.09-.04,1.64-.05,2.97-.09,5.94-.2,8.92-.33,1.24-.06,2.49-.12,3.73-.19,1.2-.06,2.4-.13,3.6-.2,3.03-.18,6.07-.38,9.11-.61,2.53-.19,5.05-.41,7.58-.64,11.67-1.03,23.4-2.41,35.18-4.2,231.57-35.1,413.99-217.52,449.09-449.09,2.36-15.57,4.05-31.03,5.1-46.37.15-2.19.29-4.39.41-6.58.05-.85.1-1.7.14-2.55.08-1.37.14-2.75.21-4.12.06-1.45.12-2.89.17-4.33.05-1.4.1-2.81.14-4.21.02-.53.03-1.06.05-1.6v-.26c.04-1.51.07-3.03.1-4.54.02-.74.03-1.48.04-2.22,0-.12,0-.24.01-.36.01-1.18.02-2.35.03-3.51,0-.4,0-.79.01-1.18.01-.4.01-.8.01-1.19v-1.91c0-.55-.01-1.1-.01-1.65ZM1482.2,153.87c1.63-.13,3.27-.25,4.91-.35h.04c1.46-.09,2.92-.17,4.38-.25.38-.02.77-.04,1.15-.06,1.14-.05,2.28-.1,3.42-.15.61-.02,1.22-.05,1.83-.07.96-.03,1.92-.06,2.88-.09.4,0,.8-.02,1.19-.03.33-.01.65-.02.98-.03.89-.02,1.78-.03,2.67-.05.33,0,.66-.01.99-.01.43-.01.86-.01,1.3-.02.87-.01,1.75-.01,2.62-.02h2.06c1,.01,2,.01,3,.02.69,0,1.38,0,2.06.02.21,0,.41.01.62.01.7.02,1.4.03,2.1.04.51.01,1.02.03,1.53.04,1.08.03,2.15.06,3.23.1.46.01.93.02,1.39.04.12,0,.25,0,.37,0h.05c1.89.08,3.79.17,5.68.27.16.01.32.01.48.02.15,0,.31.01.46.02.61.03,1.22.07,1.83.11.14.01.27.02.4.03.75.05,1.5.1,2.24.15.48.03.97.06,1.45.09.36.02.71.04,1.07.07.25.02.49.04.74.06.46.03.92.07,1.38.1.68.06,1.35.12,2.03.18.9.07,1.81.14,2.71.22.04,0,.07.01.11.01.25.02.49.05.74.07,1.76.16,3.52.34,5.27.53.31.03.61.07.92.1.16.02.32.03.48.06,1.14.12,2.27.25,3.4.39,2.28.26,4.56.55,6.82.87,2.25.3,4.5.63,6.74.98.02,0,.04.01.06.01.08.01.15.03.23.04,1.57.24,3.14.49,4.71.77.61.1,1.22.21,1.82.31,1.06.18,2.11.37,3.17.57,1.19.21,2.38.43,3.56.66.34.06.68.13,1.02.19.75.15,1.49.3,2.23.45.58.11,1.15.23,1.73.35.57.11,1.15.23,1.72.35.21.05.42.09.63.14.95.2,1.89.41,2.84.62.61.13,1.23.27,1.84.4.39.09.78.17,1.17.26.12.03.24.06.36.09.07.01.14.03.21.05,1.08.24,2.17.5,3.24.76.73.17,1.46.35,2.19.53.26.06.53.13.79.19.07.02.14.03.21.05.37.1.75.19,1.12.29,1.04.25,2.08.51,3.11.79.66.17,1.33.34,1.99.52.14.04.27.07.41.11.81.22,1.63.45,2.44.67,1.24.34,2.48.68,3.71,1.03.01.01.02.01.03.01,2.19.62,4.36,1.26,6.53,1.93,1.57.47,3.13.95,4.68,1.46.61.19,1.22.39,1.83.59.93.3,1.86.61,2.79.92,1.23.41,2.46.82,3.68,1.24,1.06.36,2.12.74,3.18,1.11,1.1.39,2.19.79,3.29,1.18.86.31,1.72.63,2.57.94,1.31.49,2.61.99,3.91,1.49.4.15.79.3,1.19.45.39.15.79.31,1.18.46,1.4.55,2.8,1.11,4.19,1.68.68.27,1.35.54,2.03.81h.01s.03.02.05.03c1.8.74,3.6,1.5,5.39,2.28.37.16.74.31,1.1.47.96.42,1.92.84,2.87,1.26.96.42,1.91.85,2.86,1.28.21.1.42.2.64.3.85.38,1.69.77,2.53,1.16,1.99.92,3.97,1.88,5.94,2.83.8.39,1.61.78,2.41,1.17,2.24,1.11,4.47,2.23,6.68,3.37.15.08.3.16.46.24.44.23.88.46,1.32.69,1.48.78,2.96,1.57,4.44,2.37.54.29,1.08.59,1.62.89,1.44.79,2.88,1.59,4.32,2.4.53.3,1.06.6,1.59.9,1.29.74,2.56,1.48,3.84,2.23.63.37,1.27.74,1.9,1.11.03.02.07.04.1.07,1.48.88,2.96,1.77,4.42,2.67.22.13.43.26.65.39.27.17.54.34.82.51,1.43.88,2.86,1.78,4.28,2.68.83.53,1.66,1.07,2.49,1.61,2.13,1.53,2.44,4.59.56,6.47l-529.58,529.58c-1.88,1.88-4.95,1.57-6.48-.56-.38-.59-.77-1.18-1.15-1.77-.06-.1-.13-.2-.19-.3-.02-.02-.03-.05-.05-.07-1.01-1.59-2.01-3.18-3-4.78-.27-.43-.53-.87-.8-1.3-.9-1.47-1.79-2.94-2.66-4.42-.02-.02-.03-.04-.05-.07-.28-.48-.57-.96-.85-1.45-.84-1.43-1.68-2.87-2.5-4.31-.31-.53-.61-1.07-.91-1.61-.81-1.43-1.61-2.87-2.4-4.31-.12-.22-.24-.44-.36-.66-.58-1.06-1.15-2.11-1.72-3.17-.64-1.19-1.27-2.37-1.88-3.57-.07-.15-.15-.29-.22-.44-.78-1.49-1.54-2.98-2.29-4.49-.13-.26-.26-.52-.4-.78-.09-.2-.19-.39-.29-.59-.9-1.81-1.79-3.63-2.66-5.46-.19-.39-.38-.79-.57-1.19-.81-1.68-1.59-3.37-2.35-5.07-.1-.2-.19-.41-.29-.62-.43-.95-.86-1.9-1.28-2.86-.42-.95-.84-1.91-1.26-2.87-.16-.36-.31-.73-.47-1.09-.09-.21-.18-.42-.26-.63-.35-.8-.69-1.6-1.03-2.4-.34-.8-.67-1.6-1-2.41-.86-2.07-1.7-4.14-2.51-6.23-.31-.8-.61-1.6-.92-2.4-.5-1.29-.99-2.58-1.47-3.88-.25-.66-.49-1.33-.73-2-.3-.82-.61-1.64-.9-2.46-.56-1.52-1.09-3.05-1.61-4.59-.42-1.22-.83-2.44-1.24-3.67-.4-1.19-.78-2.38-1.17-3.57-.31-.96-.61-1.92-.91-2.88-.3-.95-.6-1.91-.89-2.87-.37-1.21-.73-2.42-1.09-3.64-.28-.96-.56-1.92-.84-2.88,0,0-.01-.02-.01-.04-.61-2.13-1.2-4.26-1.77-6.4-.01-.05-.03-.11-.04-.16-.02-.07-.04-.15-.06-.22-.32-1.22-.63-2.45-.95-3.68-.14-.55-.28-1.11-.43-1.66-.05-.22-.1-.43-.16-.65-.01-.06-.03-.12-.04-.18-.07-.28-.13-.55-.2-.83-.19-.74-.37-1.49-.55-2.23-.25-1.06-.5-2.12-.74-3.18-.01-.03-.02-.06-.02-.09-.04-.16-.08-.32-.12-.48-.09-.4-.18-.8-.26-1.2-.14-.62-.28-1.25-.41-1.88-.12-.56-.25-1.13-.38-1.7-.05-.22-.1-.45-.15-.67-.07-.34-.15-.69-.22-1.03-.06-.28-.12-.57-.17-.85-.18-.88-.36-1.75-.53-2.63-.08-.39-.16-.78-.24-1.16-.06-.33-.13-.65-.19-.97-.31-1.55-.61-3.11-.88-4.68-.18-.99-.36-1.97-.53-2.96l-.03-.18c-.03-.15-.05-.31-.08-.46-.18-1.07-.37-2.14-.54-3.21-.36-2.12-.69-4.25-.99-6.38-.02-.15-.05-.31-.07-.46-.14-1.02-.29-2.03-.43-3.06-.32-2.26-.61-4.53-.87-6.81-.14-1.13-.27-2.27-.39-3.39-.02-.17-.04-.33-.06-.5s-.04-.34-.05-.51c-.23-2.02-.43-4.04-.61-6.07-.02-.12-.03-.23-.04-.35,0-.04,0-.07,0-.11-.08-.9-.15-1.81-.22-2.71-.06-.68-.12-1.35-.18-2.03-.03-.46-.07-.92-.1-1.38-.02-.25-.04-.49-.06-.74-.03-.39-.05-.79-.08-1.18-.03-.44-.05-.88-.08-1.32-.05-.75-.1-1.5-.15-2.25-.01-.1-.02-.2-.02-.3-.05-.65-.09-1.3-.12-1.95l-.03-.69s-.01-.09-.01-.13c-.05-.98-.1-1.95-.14-2.92-.05-.98-.09-1.95-.13-2.93,0-.12-.01-.24-.01-.36-.02-.47-.03-.94-.04-1.41-.02-.47-.03-.94-.05-1.41-.02-.59-.03-1.19-.05-1.78-.01-.51-.03-1.03-.04-1.54-.01-.71-.02-1.41-.04-2.11,0-.21-.01-.41-.01-.62-.01-.68-.02-1.37-.02-2.06-.01-1-.01-2-.02-3v-2.07c.01-.87.01-1.74.02-2.61.01-.43.01-.86.02-1.29,0-.33.01-.67.01-1.01.02-.88.03-1.77.05-2.66,0-.33.02-.65.03-.98.01-.39.02-.79.03-1.19.03-.96.06-1.92.09-2.88.02-.61.05-1.22.07-1.83.05-1.14.1-2.28.15-3.42.02-.38.04-.77.06-1.16.08-1.45.16-2.91.25-4.37v-.04c.1-1.64.22-3.28.35-4.91.24-3.28.53-6.54.87-9.8.32-3.25.7-6.49,1.11-9.72.61-4.85,1.32-9.67,2.12-14.45.16-.98.32-1.96.5-2.92.65-3.81,1.37-7.6,2.14-11.36.32-1.57.65-3.14.99-4.71.62-2.82,1.26-5.64,1.94-8.44.88-3.67,1.82-7.32,2.81-10.95.03-.09.05-.19.08-.28,35.57-122.08,149.06-235.57,271.14-271.14.09-.03.19-.05.28-.08,3.63-.99,7.28-1.93,10.95-2.81,2.8-.68,5.62-1.32,8.44-1.94,1.57-.34,3.14-.67,4.71-.99,3.76-.77,7.55-1.49,11.36-2.14.96-.18,1.94-.34,2.92-.5,4.78-.8,9.6-1.51,14.45-2.12,3.23-.41,6.47-.79,9.72-1.11,3.26-.34,6.52-.63,9.8-.87ZM1546.83,925.72c-.05.01-.09.01-.13.01-1.63.15-3.26.28-4.9.4-1.63.13-3.26.25-4.9.35h-.06c-1.45.09-2.9.17-4.36.25-.39.02-.78.04-1.17.06-1.13.05-2.27.1-3.4.15-.61.02-1.23.05-1.84.07-.96.03-1.92.06-2.88.09-.4.01-.8.02-1.19.03-.33.01-.65.02-.98.03-.89.02-1.78.03-2.66.05-.34,0-.68.01-1.01.01-.43.01-.86.01-1.29.02-.87.01-1.74.01-2.61.02h-2.07c-1-.01-2-.01-3-.02-.69,0-1.38-.01-2.06-.02-.21,0-.41-.01-.62-.01-.7-.02-1.4-.03-2.11-.04-.51-.01-1.03-.03-1.54-.04-.59-.02-1.18-.03-1.78-.05-.47-.02-.94-.03-1.41-.05-.47-.01-.94-.02-1.41-.04-.12,0-.25-.01-.37-.01h-.05c-1.92-.08-3.84-.17-5.75-.27-.1,0-.2,0-.3,0-.19-.02-.38-.02-.56-.03-.65-.03-1.3-.07-1.95-.12-.1,0-.2-.01-.3-.02l-2.25-.15c-.44-.03-.88-.05-1.32-.08-.39-.03-.79-.05-1.18-.08-.25-.02-.49-.04-.74-.06-.46-.03-.92-.07-1.38-.1l-2.04-.18c-.89-.08-1.8-.14-2.7-.22-.04,0-.07-.01-.11-.01-.12,0-.23-.02-.35-.04-2.03-.18-4.05-.38-6.07-.61-.17-.01-.34-.03-.51-.05-.17-.02-.33-.04-.5-.06-1.13-.12-2.26-.25-3.39-.39-2.28-.26-4.55-.55-6.81-.87-2.25-.3-4.5-.63-6.74-.98-.02,0-.04,0-.06,0-1.04-.17-2.07-.33-3.11-.5-1.22-.2-2.44-.41-3.66-.62-.06,0-.13-.02-.19-.03-.99-.17-1.97-.35-2.96-.53-1.5-.26-2.99-.55-4.48-.84-.78-.15-1.55-.31-2.33-.47-.91-.18-1.83-.37-2.75-.56-.24-.04-.47-.09-.71-.14-.58-.12-1.16-.25-1.73-.37-.58-.13-1.16-.26-1.73-.39-.51-.11-1.01-.22-1.51-.33-.15-.03-.31-.06-.46-.1-.35-.07-.7-.15-1.05-.23-.15-.04-.31-.07-.46-.11-.04-.01-.08-.02-.12-.03-1.08-.24-2.16-.5-3.23-.76-.95-.22-1.9-.45-2.84-.69-.12-.02-.24-.05-.36-.08-.2-.05-.39-.1-.59-.15-.54-.15-1.09-.29-1.64-.43-1.14-.28-2.27-.57-3.4-.87-.2-.05-.39-.1-.58-.15-.12-.03-.24-.07-.36-.1-2.07-.55-4.13-1.12-6.19-1.71-.01,0-.03-.01-.05-.01-.96-.28-1.91-.56-2.87-.84-1.22-.36-2.43-.72-3.65-1.09-1.57-.47-3.13-.95-4.68-1.46-.61-.19-1.21-.39-1.82-.59-.94-.3-1.87-.61-2.8-.92-1.23-.41-2.46-.82-3.68-1.24-1.54-.52-3.07-1.05-4.59-1.61-1.07-.38-2.14-.78-3.21-1.17-.42-.15-.83-.31-1.25-.46-1.22-.45-2.44-.91-3.65-1.38-.88-.34-1.76-.67-2.63-1.01-2.09-.81-4.16-1.65-6.23-2.51-.81-.33-1.61-.66-2.41-1-.81-.34-1.61-.68-2.41-1.03-.2-.09-.41-.17-.61-.26-.37-.16-.74-.31-1.11-.47-.01,0-.03,0-.04-.02-.94-.41-1.88-.83-2.82-1.24-.96-.42-1.91-.85-2.86-1.28-.21-.1-.42-.2-.63-.29-1.69-.77-3.38-1.56-5.06-2.35-1.13-.53-2.24-1.08-3.36-1.62-1.1-.53-2.2-1.06-3.3-1.61-.19-.1-.38-.19-.57-.29-.26-.13-.52-.26-.77-.39-1.06-.53-2.11-1.07-3.17-1.62-.6-.31-1.2-.6-1.79-.91-1.19-.6-2.37-1.22-3.55-1.87-1.27-.67-2.53-1.36-3.79-2.05-.02,0-.04-.02-.05-.03-1.45-.79-2.88-1.59-4.31-2.4-.54-.3-1.07-.6-1.61-.91-1.44-.82-2.88-1.66-4.31-2.5-.47-.28-.95-.55-1.42-.83-1.51-.9-3.02-1.81-4.52-2.73-.43-.27-.87-.53-1.3-.8-2.33-1.44-4.63-2.91-6.93-4.39-2.13-1.53-2.44-4.6-.56-6.48l529.58-529.58c1.88-1.88,4.94-1.57,6.47.56.47.73.95,1.46,1.42,2.19,0,0,0,.01.01.02.98,1.54,1.97,3.09,2.92,4.65.15.24.3.48.45.72.13.22.26.43.39.65.9,1.47,1.8,2.94,2.68,4.42.01.02.02.04.03.06.07.12.14.24.21.36,1.24,2.09,2.46,4.2,3.66,6.31.13.23.27.46.4.69.41.73.81,1.45,1.21,2.18,1.1,1.98,2.2,3.97,3.27,5.97.64,1.18,1.27,2.37,1.87,3.56.08.15.16.3.24.46.77,1.48,1.53,2.98,2.28,4.48.13.26.27.52.4.78.1.2.2.39.29.59.9,1.81,1.79,3.63,2.66,5.46.19.4.38.8.57,1.19.79,1.68,1.58,3.37,2.35,5.06.09.21.19.42.29.63.43.95.86,1.9,1.28,2.86.42.95.84,1.91,1.26,2.87.16.36.31.73.47,1.09.08.2.17.41.26.61.69,1.6,1.36,3.2,2.03,4.81,0,0,.01.02.01.03s.01.01.01.02c.57,1.37,1.12,2.73,1.66,4.11.28.69.56,1.39.83,2.09.35.88.68,1.76,1.01,2.64.47,1.21.93,2.42,1.38,3.64.25.66.49,1.33.73,1.99.3.82.61,1.64.9,2.47.56,1.52,1.09,3.05,1.61,4.59.42,1.22.83,2.45,1.24,3.67.41,1.21.8,2.41,1.19,3.62.27.86.55,1.72.82,2.58.32,1.04.65,2.07.96,3.12.37,1.21.73,2.42,1.09,3.64.28.96.56,1.92.84,2.88,0,.01.01.02.01.04.59,2.06,1.16,4.12,1.71,6.19.03.12.07.24.1.36.18.65.34,1.31.51,1.96.17.66.33,1.31.5,1.96.19.77.4,1.54.59,2.31.51,2.05,1.01,4.11,1.48,6.18.02.07.03.15.05.22.05.2.09.39.14.59.08.37.17.74.24,1.11.15.65.29,1.3.43,1.95.12.57.25,1.14.38,1.71.05.22.1.44.15.67.07.34.15.68.22,1.03.06.28.12.57.17.85.18.88.36,1.75.53,2.63.08.39.16.78.24,1.16.06.33.13.65.19.97.31,1.55.6,3.11.88,4.67.18.99.36,1.97.53,2.96.01.06.02.13.03.19.03.15.05.31.08.46.18,1.07.37,2.14.54,3.21.28,1.65.54,3.3.78,4.96.26,1.64.49,3.29.71,4.94.32,2.26.61,4.53.87,6.81.14,1.13.27,2.26.39,3.39.02.17.04.33.06.5.02.17.04.34.05.51.24,2.09.45,4.19.64,6.29,0,.05.01.09.01.14v.04c.08.92.15,1.84.23,2.76l.18,2.04c.03.46.07.92.1,1.38.02.25.04.49.06.74.03.39.05.79.08,1.18.03.44.05.88.08,1.32.05.75.1,1.5.15,2.25.01.1.02.2.02.3.05.65.09,1.3.12,1.95.01.21.01.41.03.62,0,.07,0,.15.01.22.1,1.92.19,3.84.27,5.77v.06c0,.11.01.23.01.34.02.48.03.95.04,1.43.02.47.03.94.05,1.41.02.6.03,1.19.05,1.78.01.51.03,1.03.04,1.54.01.71.02,1.41.04,2.11,0,.21.01.41.01.62.01.68.02,1.37.02,2.06.01,1,.01,2,.02,3v2.07c-.01.87-.01,1.74-.02,2.61-.01.43-.01.86-.02,1.29,0,.33-.01.67-.01,1.01-.02.88-.03,1.77-.05,2.66,0,.33-.02.65-.03.98-.01.39-.02.79-.03,1.19-.03.96-.06,1.92-.09,2.88-.02.61-.05,1.22-.07,1.83-.05,1.14-.1,2.28-.15,3.42-.02.38-.04.77-.06,1.16-.08,1.45-.16,2.91-.25,4.37v.04c-.1,1.64-.22,3.28-.35,4.91-.24,3.28-.53,6.54-.87,9.8-.32,3.25-.7,6.49-1.11,9.72-.61,4.85-1.32,9.67-2.12,14.45-.16.98-.32,1.96-.5,2.92-.65,3.81-1.37,7.6-2.14,11.36-.32,1.57-.65,3.14-.99,4.71-.62,2.82-1.26,5.64-1.94,8.44-.88,3.67-1.82,7.32-2.81,10.95-.03.09-.05.19-.08.28-35.57,122.08-149.06,235.57-271.14,271.14-.09.03-.19.05-.28.08-3.49.95-7.01,1.86-10.54,2.71-2.94.72-5.89,1.4-8.85,2.04-1.57.34-3.14.67-4.71.99-1.58.33-3.16.64-4.74.94-1.99.38-3.98.75-5.98,1.09-1.18.22-2.37.42-3.56.61-1.59.27-3.19.53-4.79.77-1.6.25-3.21.48-4.82.7-1.61.23-3.23.45-4.84.65-4.81.62-9.64,1.14-14.49,1.57Z"/></svg>